<svg width="1024" height="160" viewBox="0 0 1024 160" fill="none" xmlns="http://www.w3.org/2000/svg">
<g clip-path="url(#clip0_134_33497)">
<path d="M739.435 29.2028L733.77 36.9239H675.352L679.672 2.29395H742.796L739.435 29.2028ZM685.16 8.41601L685.133 8.64211L684.553 13.5708L684.514 13.8953H698.436L698.042 17.0006H684.403L684.376 17.2258L683.819 21.9702L683.78 22.2957H697.431L696.997 25.5022H683.088L683.062 25.7283L682.497 30.574L682.46 30.8985H702.164L702.191 30.6733L704.823 8.74331L704.862 8.41601H685.16ZM704.704 25.5022L704.678 25.7274L704.103 30.574L704.066 30.8985H709.796L709.822 30.6733L710.396 25.8276L710.434 25.5022H704.704ZM735.084 8.41418L714.584 8.41601H714.34L714.315 8.64211L711.775 30.574L711.738 30.8985H729.946L730.024 30.7909L733.147 26.5306L733.185 26.4786L733.192 26.4148L735.397 8.7424L735.437 8.41418H735.084ZM729.072 13.8142L727.619 25.4201H717.983L719.423 13.8142H729.072Z" fill="url(#paint0_linear_134_33497)"/>
<path d="M739.435 29.2028L733.77 36.9239H675.352L679.672 2.29395H742.796L739.435 29.2028ZM685.16 8.41601L685.133 8.64211L684.553 13.5708L684.514 13.8953H698.436L698.042 17.0006H684.403L684.376 17.2258L683.819 21.9702L683.78 22.2957H697.431L696.997 25.5022H683.088L683.062 25.7283L682.497 30.574L682.46 30.8985H702.164L702.191 30.6733L704.823 8.74331L704.862 8.41601H685.16ZM704.704 25.5022L704.678 25.7274L704.103 30.574L704.066 30.8985H709.796L709.822 30.6733L710.396 25.8276L710.434 25.5022H704.704ZM735.084 8.41418L714.584 8.41601H714.34L714.315 8.64211L711.775 30.574L711.738 30.8985H729.946L730.024 30.7909L733.147 26.5306L733.185 26.4786L733.192 26.4148L735.397 8.7424L735.437 8.41418H735.084ZM729.072 13.8142L727.619 25.4201H717.983L719.423 13.8142H729.072Z" fill="#FF7F7D" fill-opacity="0.4" style="mix-blend-mode:plus-lighter"/>
<g style="mix-blend-mode:overlay">
<path d="M217.012 124.096L791.736 124.227" stroke="url(#paint1_radial_134_33497)" stroke-width="14.359"/>
</g>
<g style="mix-blend-mode:hard-light" opacity="0.58">
<path d="M262.949 108.075L336.154 108.075" stroke="url(#paint2_radial_134_33497)" stroke-width="0.64122"/>
</g>
<g style="mix-blend-mode:hard-light" opacity="0.58">
<path d="M309.043 85.4988H346.386" stroke="url(#paint3_radial_134_33497)" stroke-width="0.781842"/>
</g>
<g style="mix-blend-mode:overlay" opacity="0.62">
<path d="M710.875 55.6035L764.336 55.6035" stroke="url(#paint4_radial_134_33497)" stroke-width="0.64122"/>
</g>
<path d="M566.24 62.631H599.621L598.268 73.9338H564.887L560.272 112.49H606.731L605.378 123.792H502.229L488.789 93.0234H468.984L449.994 123.792H375.188L376.541 112.489H393.106L395.454 93.0234H380.134L381.512 81.7202H430.013L428.611 93.0234H411.021L408.673 112.489H439.706L451.774 93.0234H439.061L440.414 81.7202H525.166L523.813 93.0234H505.825L514.935 112.49H544.705L554.085 34.1226H569.652L566.24 62.631Z" fill="white"/>
<path fill-rule="evenodd" clip-rule="evenodd" d="M655.284 34.1226L650.942 69.12L647.37 74.3948L649.694 79.544L646.305 107.173H633.901L631.577 102.024L634.193 80.1716H629.901L624.51 123.792H609.994L620.727 34.1221L655.284 34.1226ZM631.253 68.8689H635.546L638.282 46.0119H633.989L631.253 68.8689Z" fill="white"/>
<path d="M671.336 40.2766H704.53L703.177 51.5794H669.983L667.307 73.9338H671.351L673.395 56.8542H688.962L686.918 73.9338H700.482L699.129 85.237H685.565L684.212 96.5398H697.702L696.364 107.717H682.874L680.95 123.792H665.383L667.307 107.717H650.378L651.716 96.5398H668.645L669.998 85.237H653.328L659.446 34.1226H672.073L671.336 40.2766Z" fill="white"/>
<path d="M456.066 76.678H441.018L443.631 54.8447H458.726L456.066 76.678Z" fill="white"/>
<path d="M476.043 76.678H460.563L465.665 34.0513H481.146L476.043 76.678Z" fill="white"/>
<path d="M430.383 48.9831L419.643 58.7376L431.696 67.9146L430.674 76.3009H415.597L408.004 66.7566L397.517 76.3009H382.215L383.237 67.7613L408.953 48.3278H384.887L386.274 36.9449H431.85L430.383 48.9831Z" fill="white"/>
<path d="M515.045 40.6532H530.082L528.744 51.8304H513.707L512.06 65.3753H527.158L525.805 76.678H480.439L481.792 65.3753H496.58L498.226 51.8304H483.467L484.805 40.6532H499.564L500.355 34.0513H515.836L515.045 40.6532Z" fill="white"/>
<path d="M459.216 50.8257H444.155L446.165 34.0513H461.227L459.216 50.8257Z" fill="white"/>
<path d="M470.857 98.1851H484.731L469.51 123.792H455.637L470.857 98.1851Z" fill="white"/>
<path d="M467.7 112.371H487.003L481.574 123.792H467.7V112.371Z" fill="white"/>
<path d="M358.213 34.1226L357.869 36.9449H381.876L380.489 48.3278H356.482L353.327 74.216H357.745L359.841 57.015H372.668L370.572 74.216H378.321L376.934 85.5989H369.185L368.112 94.4048H355.285L356.358 85.5989H343.413L340.25 78.5803L345.672 34.1226H358.213Z" fill="white"/>
<g filter="url(#filter0_f_134_33497)">
<path d="M366.147 111.437L364.593 124.422H351.766L353.32 111.437H366.147Z" fill="url(#paint5_linear_134_33497)"/>
</g>
<g style="mix-blend-mode:screen" filter="url(#filter1_f_134_33497)">
<path d="M286.266 108.388H369.926L373.85 102.902L374.553 97.1321H287.613L286.266 108.388Z" fill="url(#paint6_linear_134_33497)"/>
</g>
<g style="mix-blend-mode:hard-light">
<path d="M350.336 124.422L351.715 111.062M353.845 95.087L354.984 85.5934M344.235 34.1172L338.922 78.5086M373.752 123.787L375.105 112.484M377.962 94.3993L379.3 83.2221M380.779 76.2954L381.801 67.7559M383.554 47.6805L384.907 36.3777M358.321 56.9403L356.328 74.0565" stroke="url(#paint7_linear_134_33497)" stroke-width="0.586381"/>
</g>
<g style="mix-blend-mode:hard-light" opacity="0.8">
<path d="M354.835 74.2105L356.894 57.0096M348.825 124.422L350.378 111.062M352.241 95.087L353.472 85.5934M342.724 34.1172L337.41 78.5086M372.24 123.787L373.593 112.484M376.45 94.3993L377.788 83.2221M379.267 76.2954L380.289 67.7559M382.042 47.6805L383.395 36.3777" stroke="url(#paint8_linear_134_33497)" stroke-width="0.390921"/>
</g>
<g style="mix-blend-mode:hard-light" opacity="0.5">
<path d="M353.323 74.2105L355.382 57.0096M347.313 124.422L348.779 111.062M350.642 95.087L351.961 85.5934M341.212 34.1172L335.898 78.5086M370.728 123.787L372.081 112.484M374.938 94.3993L376.276 83.2221M377.755 76.2954L378.777 67.7559M380.53 47.6805L381.883 36.3777" stroke="url(#paint9_linear_134_33497)" stroke-width="0.19546"/>
</g>
</g>
<defs>
<filter id="filter0_f_134_33497" x="349.476" y="109.147" width="18.9615" height="17.5641" filterUnits="userSpaceOnUse" color-interpolation-filters="sRGB">
<feFlood flood-opacity="0" result="BackgroundImageFix"/>
<feBlend mode="normal" in="SourceGraphic" in2="BackgroundImageFix" result="shape"/>
<feGaussianBlur stdDeviation="1.14468" result="effect1_foregroundBlur_134_33497"/>
</filter>
<filter id="filter1_f_134_33497" x="283.404" y="94.2704" width="94.0125" height="16.9798" filterUnits="userSpaceOnUse" color-interpolation-filters="sRGB">
<feFlood flood-opacity="0" result="BackgroundImageFix"/>
<feBlend mode="normal" in="SourceGraphic" in2="BackgroundImageFix" result="shape"/>
<feGaussianBlur stdDeviation="1.43085" result="effect1_foregroundBlur_134_33497"/>
</filter>
<linearGradient id="paint0_linear_134_33497" x1="708.025" y1="47.7864" x2="700.425" y2="-17.3625" gradientUnits="userSpaceOnUse">
<stop stop-color="#FFAB4C"/>
<stop offset="0.24766" stop-color="#FF8900"/>
<stop offset="1" stop-color="#4C0C00"/>
</linearGradient>
<radialGradient id="paint1_radial_134_33497" cx="0" cy="0" r="1" gradientUnits="userSpaceOnUse" gradientTransform="translate(504.374 124.656) scale(287.362 2.13408)">
<stop stop-color="white"/>
<stop offset="1" stop-color="#FF9928" stop-opacity="0"/>
</radialGradient>
<radialGradient id="paint2_radial_134_33497" cx="0" cy="0" r="1" gradientUnits="userSpaceOnUse" gradientTransform="translate(299.552 108.57) scale(36.6025 0.892933)">
<stop stop-color="white"/>
<stop offset="1" stop-color="#FF9928" stop-opacity="0"/>
</radialGradient>
<radialGradient id="paint3_radial_134_33497" cx="0" cy="0" r="1" gradientUnits="userSpaceOnUse" gradientTransform="translate(327.715 85.9933) scale(18.6717 0.494495)">
<stop stop-color="white"/>
<stop offset="1" stop-color="#FF9928" stop-opacity="0"/>
</radialGradient>
<radialGradient id="paint4_radial_134_33497" cx="0" cy="0" r="1" gradientUnits="userSpaceOnUse" gradientTransform="translate(740.182 55.6035) rotate(1.17284) scale(24.159 3.55107)">
<stop stop-color="white"/>
<stop offset="1" stop-color="#FF9928" stop-opacity="0"/>
</radialGradient>
<linearGradient id="paint5_linear_134_33497" x1="361.102" y1="113.164" x2="349.003" y2="126.245" gradientUnits="userSpaceOnUse">
<stop stop-color="white"/>
<stop offset="1" stop-color="white" stop-opacity="0"/>
</linearGradient>
<linearGradient id="paint6_linear_134_33497" x1="286.348" y1="102.08" x2="374.636" y2="102.08" gradientUnits="userSpaceOnUse">
<stop stop-color="#ED410E" stop-opacity="0"/>
<stop offset="0.604428" stop-color="#FF8900"/>
<stop offset="1" stop-color="#FFCA50"/>
</linearGradient>
<linearGradient id="paint7_linear_134_33497" x1="340.168" y1="37.7174" x2="370.188" y2="124.352" gradientUnits="userSpaceOnUse">
<stop stop-color="#FFFAD2"/>
<stop offset="1" stop-color="#FF8900" stop-opacity="0.51"/>
</linearGradient>
<linearGradient id="paint8_linear_134_33497" x1="338.661" y1="37.7174" x2="368.68" y2="124.352" gradientUnits="userSpaceOnUse">
<stop stop-color="#FFFAD2"/>
<stop offset="1" stop-color="#FF8900" stop-opacity="0.51"/>
</linearGradient>
<linearGradient id="paint9_linear_134_33497" x1="337.149" y1="37.7174" x2="367.168" y2="124.352" gradientUnits="userSpaceOnUse">
<stop stop-color="#FFFAD2"/>
<stop offset="1" stop-color="#FF8900" stop-opacity="0.51"/>
</linearGradient>
<clipPath id="clip0_134_33497">
<rect width="1024" height="160" fill="white"/>
</clipPath>
</defs>
</svg>
